<svg width="400" height="400" viewBox="0 0 400 400" fill="none" xmlns="http://www.w3.org/2000/svg">
<rect width="400" height="400" fill="black"/>
<path d="M154.334 153.413L165.75 148.149L154.334 142.886L142.918 148.149L154.334 153.413Z" fill="black"/>
<path d="M177.168 142.886L188.584 137.623L177.168 132.359L177.168 132.359L165.751 137.622L177.168 142.886Z" fill="black"/>
<path d="M200.001 132.36L211.418 127.097L200.002 121.833L188.585 127.096L200.001 132.36Z" fill="black"/>
<path d="M200 174.467L200 174.467L200.001 174.467L211.416 169.204L200.001 163.941L200 163.941L188.584 169.204L200 174.467Z" fill="black"/>
<path d="M222.834 163.941L234.25 158.678L222.834 153.414L211.417 158.677L222.834 163.941Z" fill="black"/>
<path d="M245.668 153.415L257.084 148.151L245.668 142.888L234.251 148.151L245.668 153.415Z" fill="black"/>
<path d="M142.915 173.491L131.499 168.227L131.499 183.042L142.916 188.305L142.915 173.491Z" fill="black"/>
<path d="M188.583 253.802L177.166 248.538L177.166 263.353L188.583 268.616V253.802Z" fill="black"/>
<path d="M222.833 248.539L222.833 248.539L211.416 253.802V268.617L222.833 263.354L222.833 263.353V248.539Z" fill="black"/>
<path d="M222.833 189.282L222.833 189.282L211.416 194.545V209.36L222.833 204.096L222.833 204.096V189.282Z" fill="black"/>
<path d="M268.501 168.228L257.084 173.492L257.084 173.492L257.084 188.306L268.501 183.043V168.228Z" fill="black"/>
<path d="M268.501 227.486L257.084 232.749V247.563L268.501 242.3V227.486Z" fill="black"/>
<path d="M200 199.808L188.583 194.545L188.583 179.73L177.166 174.467L165.749 169.203L154.332 163.94L142.915 158.677L131.499 153.413L131.499 157.701L131.499 168.227L142.915 173.491L142.916 188.305L131.499 183.042L131.499 168.227L120.082 162.964L120.082 177.778L120.082 192.593L120.082 207.407L120.082 222.221L120.082 237.035L131.499 242.299L131.499 257.113L142.916 262.377L154.332 267.64L165.749 272.904L177.166 278.167L188.583 283.431L188.583 268.616L177.166 263.353L177.166 248.538L188.583 253.802V268.616L200 273.88V259.065V244.251V229.437V214.622V199.808Z" fill="#A6A5A6"/>
<path d="M211.416 194.545L211.416 179.731L208.69 178.474L200 174.468L200 174.467L200 189.282L200 189.281L211.416 194.545Z" fill="#A6A5A6"/>
<path d="M131.499 153.413L142.917 148.148L131.501 142.885L131.499 153.413Z" fill="#A6A5A6"/>
<path d="M211.416 268.616L200 273.88L200 278.167L200 278.167L211.416 283.431V268.616Z" fill="#A6A5A6"/>
<path d="M188.583 194.545L200 199.808L188.583 194.544L200 189.282L200 174.467L188.583 179.73L177.167 174.467L165.75 169.203L154.334 163.939L142.917 158.675L131.499 153.413L142.915 158.677L154.332 163.94L165.749 169.203L177.166 174.467L188.583 179.73L188.583 194.545Z" fill="#656365"/>
<path d="M200 273.88L188.583 268.616L188.583 283.431L200 278.167L200 273.88Z" fill="#656365"/>
<path d="M211.416 194.545L200 199.808L200 214.622V229.437V244.251V259.065V273.88L211.416 268.616V253.802L222.833 248.539V263.353L211.416 268.616V283.431L222.833 278.168L234.25 272.905L245.667 267.641L257.084 262.378L268.501 257.114V242.3L257.083 247.564V232.749L268.501 227.486V242.3L268.501 242.301L279.917 237.037L279.917 222.223L279.917 222.223L279.917 207.409L279.917 207.409L279.917 192.595V177.78L279.918 162.965L268.501 168.228V183.043L257.084 188.306L257.084 188.307L257.083 188.307L257.084 188.306L257.084 173.492L257.083 173.492L257.084 173.492L268.501 168.228L268.501 153.414L257.084 158.678L245.667 163.941L245.666 163.941L234.25 169.204L222.833 174.468L211.417 179.731L211.416 194.545L222.833 189.282L222.833 204.096L211.416 209.36L211.416 194.545Z" fill="#656365"/>
<path d="M257.084 148.151L268.501 153.414L268.501 142.888L257.084 148.151Z" fill="#656365"/>
<path d="M131.499 168.227L131.499 157.701L120.082 162.964L131.499 168.227Z" fill="#DBD9DB"/>
<path d="M200 189.281L200 189.282L188.583 194.544L200 199.808L211.416 194.545L200 189.281Z" fill="#DBD9DB"/>
<path fill-rule="evenodd" clip-rule="evenodd" d="M211.416 179.73L222.833 174.468L234.25 169.204L245.667 163.941L257.083 158.678L268.501 153.415L257.084 148.151L245.667 153.415L234.251 148.151L245.668 142.888L257.084 148.151L268.501 142.888L257.084 137.624L245.668 132.361L234.251 127.097L222.835 121.833L211.418 116.57L200.002 121.833L211.418 127.097L200.001 132.36L188.585 127.096L200.002 121.833L188.585 116.569L177.169 121.832L165.752 127.096L154.335 132.359L142.918 137.622L131.501 142.885L142.918 148.149L154.335 142.886L165.751 148.15L154.334 153.412L142.918 148.149L131.499 153.413L142.915 158.677L154.332 163.94L165.749 169.203L177.166 174.467L188.583 179.73L200 174.467L188.583 169.203L200.001 163.941L211.417 169.204L200 174.467L211.416 179.73ZM188.584 137.623L177.168 142.886L165.751 137.622L177.168 132.359L177.168 132.359L188.584 137.623ZM234.25 158.678L222.834 163.941L211.417 158.677L222.834 153.414L234.25 158.678Z" fill="#DBD9DB"/>
<path d="M268.501 157.702L268.501 168.228L279.917 162.966L268.501 157.702Z" fill="#DBD9DB"/>
</svg>
